<?xml version="1.0" encoding="iso-8859-1"?>
<!-- Generator: Adobe Illustrator 19.0.0, SVG Export Plug-In . SVG Version: 6.00 Build 0)  -->
<svg version="1.1" id="Layer_1" xmlns="http://www.w3.org/2000/svg" xmlns:xlink="http://www.w3.org/1999/xlink" x="0px" y="0px"
	 viewBox="0 0 512 512" style="enable-background:new 0 0 512 512;" xml:space="preserve">
<path style="fill:#FFCE3E;" d="M380.515,307.282l-56.639-31.947c-4.315-2.434-7.326-6.658-8.22-11.53l-13.423-73.205
	c-2.798-15.26,15.003-25.734,26.99-15.937l91.04,74.436c14.103,11.491,17.101,32.294,6.802,47.342
	C416.63,311.7,396.619,316.358,380.515,307.282z"/>
<path style="fill:#E87E04;" d="M329.925,134.344c-1.48-3.275-1.865-6.939-1.097-10.449c3.036-13.872,2.111-28.938-3.286-42.871
	c-3.594-9.277,1.684-19.642,11.319-22.177c70.31-18.497,134.38,45.709,115.611,116.023c-1.542,5.776-6.055,10.287-11.832,11.826
	C395.651,198.685,349.078,176.695,329.925,134.344z"/>
<path style="fill:#F59D00;" d="M71.358,186.695c-5.777-1.539-10.29-6.051-11.832-11.826
	C40.777,104.626,104.76,40.328,175.137,58.847c9.621,2.532,14.918,12.887,11.319,22.177c-5.369,13.861-6.338,28.927-3.286,42.871
	c0.768,3.511,0.383,7.175-1.097,10.449C162.931,176.669,116.373,198.69,71.358,186.695z"/>
<g>
	<path style="fill:#FEE856;" d="M84.926,296.431c-10.292-15.038-7.294-35.841,6.832-47.35l91.018-74.418
		c12.013-9.82,29.782,0.71,26.99,15.937l-13.423,73.205c-0.894,4.872-3.905,9.097-8.22,11.53l-56.634,31.943
		C115.38,316.357,95.362,311.703,84.926,296.431z"/>
	<path style="fill:#FEE856;" d="M327.881,362.753h-56.623c-6.847,0-12.673,4.125-15.259,9.957
		c-2.582-5.827-8.399-9.957-15.259-9.957h-56.623c-9.689,0-17.368,8.242-16.65,17.928l7.117,96.171
		c1.456,19.709,18.083,35.148,37.85,35.148c19.761,0,36.383-15.439,37.84-35.148l5.725-77.37l5.725,77.369
		c1.455,19.71,18.076,35.149,37.838,35.149c19.768,0,36.393-15.439,37.85-35.148l7.117-96.173
		C345.247,371.017,337.593,362.753,327.881,362.753z"/>
</g>
<path style="fill:#FFCE3E;" d="M327.881,362.753h-56.623c-6.847,0-12.673,4.125-15.259,9.957v26.773l5.725,77.369
	C263.181,496.561,279.802,512,299.564,512c19.768,0,36.393-15.439,37.85-35.148l7.117-96.173
	C345.247,371.017,337.593,362.753,327.881,362.753z"/>
<path style="fill:#FF7058;" d="M355.992,396.144H156.006c-10.543,0-18.448-9.667-16.366-19.995
	c28.999-143.883,20.323-99.083,39.381-203.002c2.352-12.808,17.827-18.076,27.513-9.463c28.209,25.075,70.785,25.017,98.931,0
	c9.718-8.636,25.167-3.311,27.513,9.463c19.03,103.766,10.47,59.562,39.381,203.002
	C374.442,386.484,366.528,396.144,355.992,396.144z"/>
<g>
	<path style="fill:#F1543F;" d="M372.358,376.15c-28.91-143.44-20.351-99.238-39.381-203.002
		c-2.346-12.774-17.795-18.099-27.513-9.463c-14.079,12.514-31.768,18.783-49.465,18.784v213.677h99.992
		C366.528,396.144,374.442,386.484,372.358,376.15z"/>
	<path style="fill:#F1543F;" d="M354.511,287.595h-73.557c-9.22,0-16.696,7.475-16.696,16.696c0,4.555-3.705,8.26-8.259,8.26
		c-4.553,0-8.259-3.705-8.259-8.26c0-9.22-7.475-16.696-16.696-16.696h-73.557l-6.729,33.391h67.084
		c6.447,14.679,21.124,24.956,38.157,24.956s31.71-10.277,38.157-24.956h67.084L354.511,287.595z"/>
</g>
<path style="fill:#FEE856;" d="M256,215.858c-59.376,0-107.935-48.049-107.935-107.923C148.064,48.332,196.361,0,256,0
	c59.459,0,107.935,48.144,107.935,107.935C363.934,168.107,315.068,215.858,256,215.858z"/>
<g>
	<path style="fill:#FFCE3E;" d="M256,0v215.858c59.068,0,107.935-47.751,107.935-107.923C363.934,48.142,315.457,0,256,0z"/>
	<path style="fill:#FFCE3E;" d="M256,0c-59.75,0-107.935,48.446-107.935,107.935c0,9.22,7.475,16.696,16.696,16.696
		c37.103,0,71.463-19.034,91.238-50.197c19.758,31.136,54.103,50.197,91.24,50.197c9.22,0,16.696-7.475,16.696-16.696
		C363.934,48.242,315.555,0,256,0z"/>
</g>
<path style="fill:#E03E34;" d="M354.511,287.595h-73.557c-9.22,0-16.696,7.475-16.696,16.696c0,4.555-3.705,8.26-8.259,8.26v33.391
	c17.033,0,31.709-10.277,38.157-24.956h67.084L354.511,287.595z"/>
<path style="fill:#F59D00;" d="M256,0v74.434c19.758,31.136,54.103,50.197,91.24,50.197c9.22,0,16.696-7.475,16.696-16.696
	C363.934,48.242,315.555,0,256,0z"/>
<g>
</g>
<g>
</g>
<g>
</g>
<g>
</g>
<g>
</g>
<g>
</g>
<g>
</g>
<g>
</g>
<g>
</g>
<g>
</g>
<g>
</g>
<g>
</g>
<g>
</g>
<g>
</g>
<g>
</g>
</svg>
