<svg height="511pt" viewBox="1 -14 511.99994 511" width="511pt" xmlns="http://www.w3.org/2000/svg"><path d="m368.628906 483.3125h-225.253906c-7.054688 0-12.773438-5.71875-12.773438-12.773438v-56.027343h250.800782v56.027343c-.003906 7.054688-5.722656 12.773438-12.773438 12.773438zm0 0" fill="#465058"/><path d="m320.339844 414.511719v56.027343c0 7.054688-5.714844 12.773438-12.769532 12.773438h61.058594c7.050782 0 12.769532-5.71875 12.769532-12.773438v-56.027343zm0 0" fill="#323e44"/><path d="m59.132812 483.3125h-44.414062c-5.648438 0-10.230469-4.578125-10.230469-10.230469v-55.925781h64.875v55.925781c0 5.652344-4.578125 10.230469-10.230469 10.230469zm0 0" fill="#465058"/><path d="m497.390625 483.3125h-44.417969c-5.648437 0-10.226562-4.578125-10.226562-10.230469v-55.925781h64.871094v55.925781c0 5.652344-4.578126 10.230469-10.226563 10.230469zm0 0" fill="#323e44"/><path d="m74.933594 433.914062c3.742187-64.21875 13.300781-164.382812 36.472656-199.234374l29.265625-34.292969v-152.4375l-27.980469 7.875s-79.976562 88.472656-97.921875 198.667969c-11.140625 68.433593-14.15625 132.992187-14.769531 179.042968-.0390625 2.957032 2.351562 5.371094 5.308594 5.371094h64.324218c2.816407 0 5.136719-2.183594 5.300782-4.992188zm0 0" fill="#ff6c6c"/><path d="m442.367188 438.90625h64.324218c2.957032 0 5.347656-2.414062 5.308594-5.371094-.613281-46.050781-3.625-110.609375-14.769531-179.042968-17.941407-110.195313-97.921875-198.671876-97.921875-198.671876l-27.980469-7.871093v152.4375l29.265625 34.292969c23.171875 34.851562 32.734375 135.015624 36.472656 199.234374.164063 2.808594 2.488282 4.992188 5.300782 4.992188zm0 0" fill="#ff6c6c"/><path d="m497.230469 254.492188c-17.941407-110.195313-97.921875-198.671876-97.921875-198.671876l-27.980469-7.871093v53.394531c24.039063 36.363281 53.621094 91.335938 63.6875 153.148438 11.582031 71.136718 14.378906 138.085937 14.828125 184.414062h56.847656c2.957032 0 5.347656-2.414062 5.308594-5.371094-.613281-46.050781-3.625-110.609375-14.769531-179.042968zm0 0" fill="#fc7371"/><path d="m130.132812 438.90625h251.734376c7.027343 0 12.828124-5.496094 13.207031-12.511719l5.523437-191.714843c-10.507812-66.207032-12.792968-110.871094-1.285156-178.859376l-64.867188-18.25c-51.300781-14.4375-105.589843-14.4375-156.890624 0l-64.863282 18.25c11.503906 67.988282 9.222656 112.652344-1.285156 178.859376l5.523438 191.714843c.378906 7.015625 6.175781 12.511719 13.203124 12.511719zm0 0" fill="#fc7371"/><path d="m399.308594 55.820312-64.863282-18.25c-18.113281-5.097656-36.597656-8.386718-55.195312-9.882812v28.78125l40.132812 14.597656c10.078126 3.664063 16.222657 13.882813 14.726563 24.5-8.199219 58.226563-5.441406 100.589844 4.101563 160.738282l-5.261719 182.601562h48.917969c7.023437 0 12.824218-5.496094 13.203124-12.511719l5.523438-191.714843c-10.503906-66.207032-12.789062-110.871094-1.285156-178.859376zm0 0" fill="#d84444"/><path d="m331.574219 47.046875-31.121094 6.046875c-29.359375 5.703125-59.542969 5.703125-88.90625 0l-31.121094-6.046875c-5.839843-1.136719-10.058593-6.25-10.058593-12.203125v-21.914062c0-6.863282 5.5625-12.429688 12.429687-12.429688h146.410156c6.863281 0 12.425781 5.566406 12.425781 12.429688v21.914062c0 5.953125-4.214843 11.066406-10.058593 12.203125zm0 0" fill="#465058"/><path d="m358.378906 265.054688-22.265625-8.792969c-4.566406-1.804688-9.675781-1.804688-14.242187 0l-22.261719 8.792969c-4.566406 1.800781-9.675781 1.800781-14.238281 0l-22.261719-8.792969c-4.566406-1.804688-9.675781-1.804688-14.242187 0l-22.257813 8.792969c-4.566406 1.800781-9.675781 1.800781-14.242187 0l-22.257813-8.792969c-4.566406-1.804688-9.675781-1.800781-14.242187 0l-22.253907 8.792969c-4.566406 1.804687-9.675781 1.804687-14.242187 0l-27.421875-10.832032 1.519531 54.445313 25.902344 10.230469c4.5625 1.804687 9.675781 1.804687 14.242187 0l22.253907-8.792969c4.566406-1.800781 9.675781-1.800781 14.242187 0l22.257813 8.792969c4.566406 1.804687 9.675781 1.804687 14.242187 0l22.257813-8.792969c4.566406-1.800781 9.675781-1.800781 14.242187 0l22.261719 8.792969c4.566406 1.804687 9.675781 1.804687 14.238281 0l22.261719-8.792969c4.566406-1.800781 9.675781-1.800781 14.242187 0l22.265625 8.792969c4.566406 1.804687 9.675782 1.804687 14.238282 0l25.914062-10.230469 1.519531-54.445313-27.433593 10.832032c-4.5625 1.804687-9.671876 1.804687-14.238282 0zm0 0" fill="#f3e8d6"/><path d="m391.875 125.457031-19.257812 7.605469c-4.5625 1.800781-9.671876 1.800781-14.238282 0l-22.265625-8.792969c-4.566406-1.804687-9.675781-1.804687-14.242187 0l-22.261719 8.792969c-4.566406 1.800781-9.675781 1.800781-14.238281 0l-22.261719-8.792969c-4.566406-1.804687-9.675781-1.804687-14.242187 0l-22.257813 8.792969c-4.566406 1.800781-9.675781 1.800781-14.242187 0l-22.257813-8.792969c-4.566406-1.804687-9.675781-1.804687-14.242187 0l-22.253907 8.789063c-4.566406 1.804687-9.675781 1.804687-14.242187 0l-19.242188-7.601563c.585938 17.902344.007813 35.183594-1.554687 53.230469l20.796875 8.214844c4.5625 1.804687 9.675781 1.804687 14.242187 0l22.253907-8.789063c4.566406-1.804687 9.675781-1.804687 14.242187 0l22.257813 8.789063c4.566406 1.804687 9.675781 1.804687 14.242187 0l22.257813-8.789063c4.566406-1.804687 9.675781-1.804687 14.242187 0l22.261719 8.789063c4.566406 1.804687 9.675781 1.804687 14.238281 0l22.261719-8.789063c4.566406-1.804687 9.675781-1.804687 14.242187 0l22.265625 8.792969c4.566406 1.800781 9.675782 1.800781 14.238282 0l20.808593-8.21875c-1.5625-18.050781-2.140625-35.328125-1.550781-53.230469zm0 0" fill="#f3e8d6"/><g fill="#dbcdbd"><path d="m400.050781 254.222656-27.433593 10.832032c-4.5625 1.804687-9.671876 1.804687-14.238282 0l-20.1875-7.972657-1.535156 53.238281 21.722656 8.578126c4.566406 1.804687 9.675782 1.804687 14.238282 0l25.914062-10.234376zm0 0"/><path d="m391.875 125.457031-19.257812 7.605469c-4.5625 1.800781-9.671876 1.800781-14.238282 0l-22.265625-8.792969c-1.664062-.660156-3.402343-1.070312-5.160156-1.246093-1.636719 18.695312-2.042969 36.15625-1.382813 53.761718 2.222657.066406 4.441407.496094 6.542969 1.328125l22.265625 8.792969c4.566406 1.800781 9.675782 1.800781 14.238282 0l20.808593-8.21875c-1.5625-18.050781-2.140625-35.328125-1.550781-53.230469zm0 0"/></g></svg>